<svg enable-background="new 0 0 835.14 340" viewBox="0 0 835.14 340" xmlns="http://www.w3.org/2000/svg"><g fill="#fff"><path d="m483.66 254.99h19.4v-31.76c0-7.26 3.9-10.73 9.65-10.73 5.64 0 8.13 3.14 8.13 9.54v32.95h19.4v-36.86c0-14.53-7.59-21.36-18.54-21.36-9.43 0-15.61 4.77-18.65 10.62v-9.1h-19.4v56.7z"/><path d="m459.12 256.29c4.55 0 8.24-.98 10.73-1.63v-14.74c-1.73.65-3.36.98-5.53.98-3.68 0-5.74-1.84-5.74-5.96v-23.41h11.17v-13.23h-11.17v-11.82h-19.4v11.82h-6.83v13.23h6.83v25.26c0 13.32 7.15 19.5 19.94 19.5" opacity=".6"/><path d="m433.06 226.05c0-20.38-13.33-29.27-28.83-29.27-17.13 0-30.68 11.49-30.68 29.7v.87c0 18.54 13.01 28.94 30.79 28.94 17.13 0 26.99-7.26 28.73-20.05h-18.21c-.76 3.79-3.47 6.72-9.87 6.72-6.94 0-11.27-4.34-11.82-11.82h39.89zm-39.67-5.85c.98-6.83 4.99-10.62 10.84-10.62 6.29 0 9.65 3.79 9.97 10.62z" opacity=".6"/><path d="m313.17 254.99h19.4v-31.76c0-7.26 3.9-10.73 9.65-10.73 5.64 0 8.13 3.14 8.13 9.54v32.95h19.4v-36.86c0-14.53-7.59-21.35-18.54-21.35-9.43 0-15.61 4.77-18.64 10.62v-9.11h-19.4z" opacity=".6"/><path d="m272.71 254.99h19.4v-26.88c0-9.11 6.5-12.79 18.32-12.47v-18.1c-8.78-.11-14.74 3.58-18.32 12.03v-11.27h-19.4z" opacity=".6"/><path d="m268.02 226.05c0-20.38-13.33-29.27-28.83-29.27-17.13 0-30.68 11.49-30.68 29.7v.87c0 18.54 13.01 28.94 30.79 28.94 17.13 0 26.99-7.26 28.73-20.05h-18.21c-.76 3.79-3.47 6.72-9.87 6.72-6.94 0-11.27-4.34-11.82-11.82h39.89zm-39.68-5.85c.98-6.83 4.99-10.62 10.84-10.62 6.29 0 9.65 3.79 9.97 10.62z" opacity=".6"/><path d="m197.19 256.29c4.55 0 8.24-.98 10.73-1.63v-14.74c-1.73.65-3.36.98-5.53.98-3.69 0-5.75-1.84-5.75-5.96v-23.41h11.17v-13.23h-11.17v-11.82h-19.4v11.82h-6.83v13.23h6.83v25.26c0 13.32 7.16 19.5 19.95 19.5" opacity=".6"/><path d="m111.8 254.99h19.4v-31.76c0-7.26 3.9-10.73 9.65-10.73 5.64 0 8.13 3.14 8.13 9.54v32.95h19.4v-36.86c0-14.53-7.59-21.35-18.54-21.35-9.43 0-15.61 4.77-18.64 10.62v-9.11h-19.4z" opacity=".6"/><path d="m94.65 192.88c6.07 0 10.73-4.23 10.73-9.97s-4.66-10.08-10.73-10.08-10.62 4.34-10.62 10.08 4.55 9.97 10.62 9.97" opacity=".6"/><path d="m85 198.3h19.4v56.69h-19.4z" opacity=".6"/><path d="m542.08 254.99h51.27v-14.63h-24.17l25.48-40v-2.06h-49.98v14.63h22.22l-24.82 40.11z"/><path d="m680.06 113.32c-7.74 0-14.01-6.35-14.01-14.17 0-7.83 6.27-14.17 14.01-14.17s14.02 6.35 14.02 14.17c-.01 7.82-6.28 14.17-14.02 14.17"/><path d="m656.94 83.05c-3.95 0-7.15-3.24-7.15-7.23s3.2-7.23 7.15-7.23 7.15 3.24 7.15 7.23c-.01 3.99-3.21 7.23-7.15 7.23" opacity=".3"/><path d="m708.09 113.32c-7.74 0-14.01 6.35-14.01 14.17 0 7.83 6.27 14.17 14.01 14.17s14.02-6.35 14.02-14.17c-.01-7.83-6.28-14.17-14.02-14.17"/><path d="m736.12 170.13c-7.74 0-14.02-6.35-14.02-14.17 0-7.83 6.27-14.17 14.02-14.17 7.74 0 14.01 6.35 14.01 14.17s-6.27 14.17-14.01 14.17"/><path d="m708.09 170.12c-7.74 0-14.01 6.35-14.01 14.17 0 7.83 6.27 14.17 14.01 14.17s14.02-6.35 14.02-14.17c-.01-7.82-6.28-14.17-14.02-14.17"/><path d="m680.06 226.82c-7.74 0-14.01-6.35-14.01-14.17 0-7.83 6.27-14.17 14.01-14.17s14.02 6.35 14.02 14.17c-.01 7.82-6.28 14.17-14.02 14.17"/><path d="m708.28 221.03c-4.64 0-8.4-3.8-8.4-8.49s3.76-8.49 8.4-8.49 8.4 3.8 8.4 8.49c0 4.68-3.76 8.49-8.4 8.49" opacity=".35"/><path d="m652.03 255.17c-7.74 0-14.02-6.35-14.02-14.17 0-7.83 6.27-14.17 14.02-14.17 7.74 0 14.02 6.35 14.02 14.17s-6.28 14.17-14.02 14.17"/><path d="m628.3 272.93c-4.28 0-7.74-3.59-7.74-8.02s3.47-8.02 7.74-8.02c4.28 0 7.74 3.59 7.74 8.02s-3.46 8.02-7.74 8.02" opacity=".3"/><path d="m708.09 147.11c-4.85 0-8.77 3.96-8.77 8.84s3.93 8.84 8.77 8.84 8.77-3.96 8.77-8.84-3.93-8.84-8.77-8.84" opacity=".35"/><path d="m680.25 248.71c-4.28 0-7.74-3.51-7.74-7.83s3.46-7.83 7.74-7.83 7.74 3.51 7.74 7.83c.01 4.32-3.46 7.83-7.74 7.83" opacity=".35"/><path d="m736.12 118.99c-4.79 0-8.66 3.81-8.66 8.5s3.88 8.5 8.66 8.5 8.66-3.81 8.66-8.5-3.88-8.5-8.66-8.5" opacity=".35"/><path d="m680.06 135.17c-4.2 0-7.59-3.44-7.59-7.68s3.4-7.68 7.59-7.68 7.59 3.44 7.59 7.68-3.4 7.68-7.59 7.68" opacity=".35"/></g></svg>